<?xml version="1.0" standalone="no"?>
<!DOCTYPE svg PUBLIC "-//W3C//DTD SVG 20010904//EN"
 "http://www.w3.org/TR/2001/REC-SVG-20010904/DTD/svg10.dtd">
<svg version="1.0" xmlns="http://www.w3.org/2000/svg"
 width="2302.000000pt" height="768.000000pt" viewBox="0 0 2302.000000 768.000000"
 preserveAspectRatio="xMidYMid meet">
<metadata>
Created by potrace 1.16, written by Peter Selinger 2001-2019
</metadata>
<g transform="translate(0.000000,768.000000) scale(0.100000,-0.100000)"
fill="#000000" stroke="none">
<path d="M650 3975 l0 -2795 4795 0 4795 0 0 495 0 495 6075 0 6075 0 0 925 0
925 -6075 0 -6075 0 0 1375 0 1375 -2285 0 -2285 0 0 -265 0 -265 -650 0 -650
0 0 -485 0 -485 -1160 0 -1160 0 0 750 0 750 -700 0 -700 0 0 -2795z m5020
-595 l0 -1540 -50 0 -50 0 0 1540 0 1540 50 0 50 0 0 -1540z m-2776 26 c105
-51 161 -144 161 -266 0 -85 -21 -142 -74 -203 -82 -92 -237 -121 -353 -64
-160 79 -215 278 -118 430 80 126 246 170 384 103z"/>
</g>
</svg>
